<svg width="72" height="67" viewBox="0 0 72 67" fill="none" xmlns="http://www.w3.org/2000/svg">
<path d="M58.6644 42.3735L49.7195 50.632L45.3996 45.9091C44.8836 45.3414 44.0096 45.3043 43.4471 45.8251C42.8851 46.3458 42.8478 47.228 43.3643 47.7957L48.6259 53.5529C48.8925 53.8368 49.2625 53.9989 49.6503 54C49.997 53.9956 50.3307 53.8668 50.5919 53.6365L60.5471 44.4276C60.8208 44.1793 60.9836 43.8305 60.9988 43.4598C61.0144 43.0892 60.8819 42.7278 60.6304 42.4571C60.3816 42.1814 60.0338 42.0171 59.6644 42.0013C59.2956 41.9854 58.9353 42.1197 58.6644 42.3735Z" fill="white"/>
<path fill-rule="evenodd" clip-rule="evenodd" d="M23.5496 41C24.3496 41.0023 24.9977 41.6563 25 42.4634V51.5366C24.9977 52.3438 24.3496 52.9977 23.5496 53H7.45038C6.65041 52.9977 6.00227 52.3438 6 51.5366V42.4634C6.00227 41.6563 6.65041 41.0023 7.45038 41H23.5496ZM8.90076 50.2195H22.0992V43.9268H8.90076V50.2195Z" fill="white"/>
<path fill-rule="evenodd" clip-rule="evenodd" d="M59.2673 29.5061V18.6067C59.2651 18.4226 59.2269 18.2408 59.1538 18.0721L53.114 3.34746C52.2865 1.31316 50.2915 -0.0135617 48.0805 0.000172458H11.2295C9.01738 -0.0174073 7.02016 1.31041 6.19602 3.34746L0.127388 18.0859C0.0504012 18.249 0.00720016 18.4265 0 18.6067V53.091C0.0249236 56.0817 2.47132 58.4962 5.48708 58.5055H36.3403C39.8568 63.5685 45.7831 66.9998 52.4898 66.9998C63.2374 66.9998 72 58.3226 72 47.6484C71.9856 39.3508 66.6403 32.2485 59.2673 29.5061ZM50.4765 4.37368L55.737 17.158H38.2262L35.9859 2.81293H48.0661C49.1168 2.79205 50.0727 3.41174 50.4765 4.37368ZM35.5888 19.9707H23.2532V31.1372L35.5888 26.3275V19.9707ZM23.4941 17.158L25.848 2.81293H33.1075L35.3478 17.158H23.4941ZM11.2295 2.81293C10.1788 2.79205 9.22286 3.41174 8.8191 4.37368L3.57294 17.158H20.6301L22.984 2.81293H11.2295ZM5.48708 55.6928C4.03763 55.6834 2.86068 54.5281 2.83576 53.091V19.9707H20.4175V33.2044C20.4163 33.6725 20.6501 34.1103 21.0411 34.3718C21.2776 34.5246 21.5534 34.6075 21.8353 34.6108C22.0148 34.6125 22.1931 34.579 22.3598 34.5125L37.5311 28.6057C38.0712 28.3925 38.4251 27.8739 38.4245 27.2977V19.9707H56.4316V28.6903C55.135 28.4233 53.814 28.2915 52.4898 28.2964C41.7421 28.2964 32.9801 36.9879 32.9801 47.6484C32.984 50.4183 33.5832 53.1563 34.738 55.6785H5.48708V55.6928ZM35.8158 47.6484C35.8158 56.7745 43.2747 64.1733 52.4759 64.1733C61.6633 64.1733 69.1498 56.7613 69.136 47.6484C69.136 38.5218 61.6766 31.1234 52.4759 31.1234C43.2747 31.1234 35.8158 38.5218 35.8158 47.6484Z" fill="white"/>
</svg>
