<svg width="64" height="64" viewBox="0 0 64 64" fill="none" xmlns="http://www.w3.org/2000/svg">
<g clip-path="url(#clip0_2_81)">
<circle cx="32" cy="32" r="32" fill="white"/>
<path d="M43.1016 28.8125C43.1016 29.0859 43.1016 29.3047 43.1016 29.5781C43.1016 37.1797 37.3594 45.875 26.8047 45.875C23.5234 45.875 20.5156 44.9453 18 43.3047C18.4375 43.3594 18.875 43.4141 19.3672 43.4141C22.0469 43.4141 24.5078 42.4844 26.4766 40.9531C23.9609 40.8984 21.8281 39.2578 21.1172 36.9609C21.5 37.0156 21.8281 37.0703 22.2109 37.0703C22.7031 37.0703 23.25 36.9609 23.6875 36.8516C21.0625 36.3047 19.0938 34.0078 19.0938 31.2188V31.1641C19.8594 31.6016 20.7891 31.8203 21.7188 31.875C20.1328 30.8359 19.1484 29.0859 19.1484 27.1172C19.1484 26.0234 19.4219 25.0391 19.9141 24.2188C22.7578 27.6641 27.0234 29.9609 31.7812 30.2344C31.6719 29.7969 31.6172 29.3594 31.6172 28.9219C31.6172 25.75 34.1875 23.1797 37.3594 23.1797C39 23.1797 40.4766 23.8359 41.5703 24.9844C42.8281 24.7109 44.0859 24.2188 45.1797 23.5625C44.7422 24.9297 43.8672 26.0234 42.6641 26.7344C43.8125 26.625 44.9609 26.2969 45.9453 25.8594C45.1797 27.0078 44.1953 27.9922 43.1016 28.8125Z" fill="#FFCC29"/>
</g>
<defs>
<clipPath id="clip0_2_81">
<rect width="64" height="64" fill="white"/>
</clipPath>
</defs>
</svg>
